<svg width="102" height="100" viewBox="0 0 102 100" fill="none" xmlns="http://www.w3.org/2000/svg">
<g clip-path="url(#clip0_50_2)">
<path opacity="0.8" d="M67.5 59.12V33.33H83C87.6175 34.1586 91.8734 36.3735 95.2013 39.68C98.5293 42.9865 100.772 47.2279 101.63 51.84V66.67H75C73.0063 66.6568 71.0987 65.8555 69.6936 64.4411C68.2885 63.0266 67.5 61.1138 67.5 59.12Z" fill="#6F47EB"/>
<path d="M34.1599 25.79V3.40791e-06H66.0699C67.3066 -0.00148955 68.4934 0.487608 69.3699 1.36L100.31 32.36C101.181 33.2335 101.67 34.4166 101.67 35.65V51.84C100.809 47.2224 98.5607 42.977 95.225 39.6699C91.8893 36.3628 87.6248 34.1512 82.9999 33.33H41.7099C40.7189 33.3313 39.7374 33.1373 38.8214 32.7589C37.9055 32.3806 37.0731 31.8254 36.3719 31.1251C35.6706 30.4248 35.1144 29.5932 34.7348 28.6777C34.3553 27.7623 34.1599 26.781 34.1599 25.79Z" fill="url(#paint0_linear_50_2)"/>
<path opacity="0.8" d="M34.18 40.88V66.67H18.64C14.0218 65.8406 9.7652 63.6257 6.43578 60.3195C3.10636 57.0133 0.861697 52.7723 0 48.16L0 33.33H26.63C28.6324 33.33 30.5528 34.1254 31.9687 35.5413C33.3846 36.9572 34.18 38.8776 34.18 40.88Z" fill="#6F47EB"/>
<path d="M67.51 74.21V100H35.6C34.3666 99.9999 33.1835 99.5109 32.31 98.64L1.36 67.69C0.489124 66.8165 6.03381e-05 65.6334 0 64.4L0 48.16C0.861697 52.7723 3.10636 57.0133 6.43578 60.3195C9.7652 63.6257 14.0218 65.8406 18.64 66.67H60C61.9945 66.6779 63.9047 67.4758 65.3122 68.889C66.7197 70.3022 67.51 72.2155 67.51 74.21Z" fill="url(#paint1_linear_50_2)"/>
</g>
<defs>
<linearGradient id="paint0_linear_50_2" x1="-0.110091" y1="-12.79" x2="58.7299" y2="19.53" gradientUnits="userSpaceOnUse">
<stop stop-color="#F5F5F5"/>
<stop offset="1" stop-color="#6F47EB"/>
</linearGradient>
<linearGradient id="paint1_linear_50_2" x1="101.78" y1="112.79" x2="42.94" y2="80.47" gradientUnits="userSpaceOnUse">
<stop stop-color="#0038FF"/>
<stop offset="1" stop-color="#AB8FFF"/>
</linearGradient>
<clipPath id="clip0_50_2">
<rect width="101.67" height="100" fill="white"/>
</clipPath>
</defs>
</svg>
